<svg xmlns="http://www.w3.org/2000/svg" viewBox="0 0 64 64">
  <defs>
    <linearGradient id="heartGradient" x1="0" y1="0" x2="1" y2="1">
      <stop offset="0%" stop-color="#ff4b6e" />
      <stop offset="50%" stop-color="#ff1f4b" />
      <stop offset="100%" stop-color="#c4002f" />
    </linearGradient>
    <filter id="shadow" x="-20%" y="-20%" width="140%" height="140%">
      <feDropShadow dx="0" dy="2" stdDeviation="2" flood-color="#b0002a" flood-opacity="0.5" />
    </filter>
  </defs>
  <rect width="64" height="64" rx="16" ry="16" fill="#1a1b27" />
  <path
    d="M32 50s-9.4-5.5-15.3-11.4C12 34 10 30.6 10 26.5 10 20.8 14.4 16 20.2 16c3.4 0 6.5 1.7 8.4 4.4C30.3 17.7 33.4 16 36.8 16 42.6 16 47 20.8 47 26.5c0 4.1-2 7.5-6.7 12.1C41.4 44.5 32 50 32 50z"
    fill="url(#heartGradient)"
    filter="url(#shadow)"
  />
</svg>
